<?xml version="1.0" standalone="no"?>
<!DOCTYPE svg PUBLIC "-//W3C//DTD SVG 20010904//EN"
 "http://www.w3.org/TR/2001/REC-SVG-20010904/DTD/svg10.dtd">
<svg version="1.0" xmlns="http://www.w3.org/2000/svg"
 width="260.000000pt" height="260.000000pt" viewBox="0 0 260.000000 260.000000"
 preserveAspectRatio="xMidYMid meet">
<metadata>
Created by potrace 1.11, written by Peter Selinger 2001-2013
</metadata>
<g transform="translate(0.000000,260.000000) scale(0.100000,-0.100000)"
fill="#000000" stroke="none">
<path d="M1170 2344 c-197 -67 -319 -221 -326 -412 -6 -160 68 -287 208 -358
74 -38 181 -44 259 -15 183 69 234 299 87 395 -80 52 -209 -11 -164 -80 9 -12
26 -24 38 -26 32 -4 37 -52 8 -83 -28 -30 -62 -38 -109 -25 -77 20 -124 89
-124 180 0 132 117 240 267 246 195 8 355 -142 370 -346 9 -124 -38 -245 -132
-337 -136 -134 -320 -175 -518 -117 -122 36 -144 39 -264 38 -80 0 -122 -6
-175 -23 -254 -82 -423 -290 -431 -531 -4 -111 8 -169 51 -257 91 -185 259
-287 459 -279 170 7 298 88 367 234 72 150 23 331 -111 416 -115 73 -262 50
-334 -51 -51 -73 -36 -172 32 -207 55 -29 117 7 92 53 -14 28 14 61 53 61 39
-1 73 -27 91 -72 45 -112 -66 -238 -211 -238 -120 0 -254 111 -279 231 -2 13
-5 52 -5 86 -1 238 242 418 503 371 86 -15 190 -71 256 -137 70 -71 113 -154
146 -281 31 -121 56 -178 112 -257 142 -199 416 -305 637 -247 26 7 51 13 55
14 4 1 27 10 51 21 24 10 45 19 48 19 2 0 27 17 56 39 145 107 219 254 213
426 -5 146 -63 261 -175 345 -194 146 -470 95 -570 -105 -85 -171 23 -375 200
-375 46 0 111 34 132 69 46 78 -14 169 -75 114 -11 -9 -25 -18 -33 -19 -23 -3
-58 43 -57 76 4 139 222 170 318 44 132 -172 27 -411 -208 -472 -54 -15 -166
-6 -225 16 -207 78 -325 308 -272 528 25 103 68 172 180 285 163 164 229 303
229 486 0 167 -52 295 -170 414 -152 153 -359 207 -550 143z"/>
</g>
</svg>
